<svg xmlns="http://www.w3.org/2000/svg" width="315.007" height="157.149" viewBox="0 0 315.007 157.149"><path fill="#FFF" d="M159.503 0C136.802.002 118.4 18.403 118.4 41.103a40.915 40.915 0 0 0 4.932 19.536c.469-.479.979-.951 1.524-1.41a38.913 38.913 0 0 1-4.456-18.126c0-10.8 4.375-20.568 11.451-27.646 7.081-7.077 16.849-11.453 27.65-11.453 10.8 0 20.566 4.376 27.648 11.453 7.076 7.078 11.449 16.847 11.449 27.646a38.977 38.977 0 0 1-3.481 16.133c.584.382 1.137.771 1.665 1.171a40.967 40.967 0 0 0 3.818-17.304C200.604 18.403 182.202.002 159.503 0z"/><path fill="#FFF" d="M159.503 4.022c-20.481 0-37.081 16.604-37.081 37.08a36.897 36.897 0 0 0 4.058 16.86c.202-.146.415-.284.624-.426a36.176 36.176 0 0 1-3.933-16.437c0-10.033 4.067-19.114 10.642-25.688 6.575-6.575 15.656-10.645 25.69-10.645 10.033 0 19.112 4.067 25.688 10.645 6.576 6.573 10.642 15.654 10.642 25.688 0 5.24-1.117 10.215-3.11 14.714.223.12.44.241.656.364a36.92 36.92 0 0 0 3.205-15.078c-.001-20.475-16.605-37.077-37.081-37.077zm34.448 62.107c0 1.016-.636 1.375-1.115 1.312-.881-.112-1.351-.569-1.5-1.438-.129-.75.422-2.156 2.024-2.156 1.287 0 2.377 1.312 2.188 2.989-.089.787-.521 3.083-3.074 3.083-2.555 0-4.373-2.208-8.058-5.958-1.832-1.866-3.491-2.599-4.698-2.861-1.218-.267-1.972-.224-1.972-.056s.764 0 1.901.374c1.195.392 2.806 1.191 4.379 2.835 3.074 3.208 5.476 6.156 8.457 6.156 2.982 0 3.759-3.075 3.802-3.573.174-2.04-1.306-3.333-2.849-3.333-1.642 0-2.652 1.281-2.588 2.656.049 1.053.967 1.951 2.062 1.951 1.095 0 1.998-.79 1.998-1.844 0 0 .062-.766-.438-.828-.496-.058-.519.378-.519.691zm-67.225 5.673c-2.243-1.96-3.973-2.673-7.712-2.394 2.638 3.598 8.872 4.351 11.345 5.134-1.065.055-1.914.46-2.508 1.271 1.759 1.077 3.5 1.309 5.681.244-1.103.646-1.739 1.562-1.708 2.218 2.085.727 3.213-1.36 5.071-1.684.729-.123 1.224-.536 3.341.094-3.341-.094-4.91 2.483-5.797 3.604 2.64.562 4.487.188 5.903-.697-.333.621-.464 1.167-.333 1.612 2.673.165 3.789-2.606 5.686-3.912.932-.499 1.431-.405 1.871-.218-2.309 1.611-3.021 3.117-2.501 4.537 1.72.075 2.938-.506 3.538-1.885.72.902 1.612.78 2.697-.421 3.007-6.941 10.812-8.172 13.393-8.517-3.27 1.016-3.709 1.462-5.729 2.91-.493 1.201-1.897 1.52-3.399 1.729-.552.126-.969.33-1.146.684-.046.477.208.777.66.962-.858.464-1.458.995-1.392 1.702a3.69 3.69 0 0 0 2.307-.631c-1.389 2.142-1.312 3.408-1.093 4.59 3.308-.27 3.531-3.071 5.469-3.409-.228.779-.103 1.373.418 1.763 1.489-1.768 1.426-3.237 1.415-5.114.152.892.494 1.035.938 1.407 1.615-5.716 6.471-4.965 12.396-1.402-5.744-8.852-14.065-6.191-19.674-3.439-8 3.927-17.2 4.201-24.186.903-2.909-1.372-4.07-2.7-4.951-1.641zm17.909 5.278c-1.037.674-2.063 1.359-2.771 2.466-.001-.676.235-1.122 1.094-1.839-1.053.331-1.802.512-2.578 1.272.162-.479.488-.77 1.19-1.247-1.032.22-1.733.356-2.823.88.31-.508.968-.857 1.971-1.062 1.927-.1 3.111-.267 3.917-.47zm5.678 2.172c1.053-2.301 2.708-4.134 5.15-5.371-5.586 1.553-7.056 3.925-9.027 6.194 1.794-1.524 3.506-3.232 5.542-4.232-1.491 1.22-1.653 2.32-1.665 3.409zm22.472-5.766c-4.045-3.614-7.968-1.775-10.205.015l.007-.004-.008.009c-.178.139-.35.281-.521.426-1.638 1.3-3.541 2.347-6.279 2.597 1.556.36 3.098.062 4.615-1.042l.002-.003a23.916 23.916 0 0 0-3.501 4.606c1.462-1.793 2.904-3.629 4.798-4.72-1.018 1.046-1.286 1.985-1.555 2.934 1.787-3.784 6.203-8.34 12.647-4.818z"/><path fill="#FFF" d="M175.478 75.983c-.97.472-2.541.521-3.687.521-3.129 0-6.699-2.603-6.192-6.666.619-5.001 5.123-7.709 9.196-7.709 5.759 0 7.933 2.589 9.774 4.542 1.574 1.666 4.021 4.833 7.873 4.833 2.774 0 5.367-2.442 5.096-5.791-.288-3.537-3.729-6.003-7.826-7.174-1.577-.451-3.67.067-3.771-.576-.061-.371 1.283-1.823 4.433-1.042 3.024.75 7.396 3.375 7.894 8.583.451 4.729-3.418 7.562-7.021 8.344-3.016.653-6.198 1.656-6.276 3.734-.03.578.263 1.137.062 1.214-.295.114-1.057-.229-1.158-1.917-.223-3.625-1.448-6.562-4.962-9.875-2.343-2.208-5.817-3.299-9.261-1.719-3.199 1.469-3.553 4.97-3.057 6.636.498 1.666 2.165 4.836 8.463 3.461l.42.601z"/><path fill="#FFF" d="M182.89 65.798V26.047c.002-3.775 3.188-3.832 3.207-3.834h.002c.135 0 .248.109.248.249a.251.251 0 0 1-.248.251c-.006.024-2.703-.061-2.709 3.334 0 3.582 0 39.748.002 39.751 0 .136-.113.25-.252.25a.25.25 0 0 1-.25-.25z"/><path fill="#FFF" d="M180.599 35.837v10.626c0 4.75.666 6.292 1.916 7.292.877.701 1.532.664 2.354 1.062.729.354 1.021.938.938 1.146-.062.149-.524-.312-1.332-.444-1.041-.172-2.547-.052-4.002 1.402-2.354 2.354-4.25 4.937-7.709 4.937-2.166 0-4-1.83-4-3.603a3.209 3.209 0 0 1 3.209-3.208c1.771 0 3.291 1.791 2.541 4.124 0 0-.666-.292-1.041-.625s-1.375-.708-2.125.167.291 2.583 1.375 2.583 4.166-.542 3.875-7.625V39.545s.209-3.083-2.168-5.208c-1.602-1.436-3.765-2.166-4.021-4.137-.271-.571.063-2.279.354-2.279.293 0 .436 1.015 1 1.75.418.541.918 1.166 2.334 1 3.399-.398 5.021-5.883 5.791-7.229 1-1.75 3.625-4.562 7.459-3.896l-.375.667s-6.459-1.126-6.459 10.081c.002 4.791.086 5.543.086 5.543zM145.121 52.34c0-.145.002-.271 0-.378l.002-29-.002-.38c.002-1.248.078-3.791 2.406-3.829 2.327.038 2.402 2.583 2.404 3.829v10.629a1.79 1.79 0 1 1-3.582 0c0-.989.801-1.79 1.79-1.79.138 0 .25.108.25.248a.25.25 0 0 1-.25.25 1.295 1.295 0 0 0-1.292 1.292 1.295 1.295 0 0 0 1.292 1.293 1.294 1.294 0 0 0 1.292-1.293V22.582c.002-.632-.029-1.502-.29-2.181-.276-.678-.691-1.139-1.613-1.149-.924.013-1.341.474-1.615 1.147-.263.679-.292 1.551-.292 2.183l.002.38v29l-.002.378c0 .632.029 1.502.292 2.18.275.679.69 1.142 1.615 1.15.922-.011 1.337-.476 1.613-1.15.261-.678.292-1.55.29-2.18V41.004c0-.714-.578-1.29-1.292-1.292a1.295 1.295 0 0 0-1.292 1.292 1.295 1.295 0 0 0 1.292 1.293.25.25 0 0 1 .25.249.25.25 0 0 1-.25.25 1.792 1.792 0 1 1 0-3.585c.991 0 1.792.804 1.792 1.793V52.34c-.002 1.245-.077 3.791-2.404 3.83-2.328-.039-2.403-2.583-2.406-3.83zm11.249 0l.002-.378V41.004c0-.989.801-1.793 1.792-1.793a1.793 1.793 0 0 1 0 3.585.248.248 0 0 1-.25-.25c0-.138.108-.249.25-.249a1.297 1.297 0 0 0 1.292-1.293 1.295 1.295 0 0 0-1.292-1.292 1.296 1.296 0 0 0-1.294 1.292V52.34c-.002.63.029 1.502.29 2.18.275.677.693 1.142 1.614 1.15.924-.011 1.338-.474 1.611-1.15.264-.678.293-1.548.293-2.18a11.86 11.86 0 0 1 0-.378V29.611c0-.008-.027-.273-.027-.711.002-1.601.354-5.599 3.941-6.924a.252.252 0 0 1 .321.148.25.25 0 0 1-.149.319c-3.242 1.166-3.615 4.895-3.615 6.454 0 .415.027.659.027.688v22.754c-.002 1.247-.076 3.791-2.402 3.83-2.327-.038-2.402-2.584-2.404-3.829z"/><path fill="#FFF" d="M147.283 36.337h11.875v1.542h-11.875z"/><path fill="#FFF" d="M155.05 25.712v29.292c0 1.875.339 3.312 1.831 4 1.492.688 2.78-.562 2.915-1.125 0 0 .66 2.6-1.83 3.312-1.966.562-3.661-1.188-3.661-1.188s2.834 2.253 1.017 5c-2.068 3.125-1.593 3.875-2.102 3.875-.508 0-.034-.75-2.102-3.875-1.817-2.747 1.017-5 1.017-5s-1.695 1.75-3.661 1.188c-2.491-.713-1.831-3.312-1.831-3.312.135.562 1.424 1.812 2.916 1.125 1.492-.688 1.831-2.125 1.831-4V25.755c0-1.333.458-8.333-4.042-8.333-4.083 0-3.75 7.208-3.75 8.333v24.999c0 .959.623 10.572-2.792 15.333-2.958 4.125-6.417 4.71-8.667 4.543-3.822-.284-7.292-2.918-7.292-6.335 0-3.084 2.5-5.584 5.583-5.584s5.521 2.562 4.833 5.543c-.383 1.66-1.583 2.917-3.75 2.792.561-.41.917-1.086.917-1.834a2.25 2.25 0 0 0-2.25-2.25c-1.243 0-2.297 1.02-2.375 2.271-.083 1.333.5 3.646 3.792 4.604 3.587 1.044 7.729-2.542 8.729-4.604.605-1.248 1.493-2.858 1.271-6.291-.104-1.604-.458-5.041-4.646-6.208 0 0 4.688-2.417 4.688-8.479v-7.583s-4.146 2.958-2.729 5.521c0 0-.465.104-.854-.438-.542-.75-.626-1.334-1.604-1.334a1.771 1.771 0 0 0 0 3.542s-.771.749-2.021-.001c-1.587-.952-1.667-3.833-.25-5.708s3.292-3.751 3.167-4.709c0 0 .833.084 1.25 1.709.272 1.062.958 1.25 1.417 1.25 1.042 0 1.625-.917 1.625-2.792v-5.333s.167-3.542-2.542-5.417-4.521-3.271-3.708-5.958c0 0 .308.62 1.058 1.487.627.724 1.708 1.389 3.567 1.389 2.458 0 4.566-2.068 5.125-2.792 1.562-2.021 2.75-4.876 1.958-7.709 0 0 6.167-.292 8 8.958 0 0 1.083-7.126 6.833-8.167 3.916-.709 7.344 1.36 8.121 4.382.777 3.02-.932 6.071-3.816 6.814-2.887.742-5.223-.696-5.68-3.529.56.482 1.305.833 2.104.833a3.188 3.188 0 0 0 3.188-3.188c0-1.761-1.435-3.04-3.188-3.188-1.979-.166-5.391 1.02-6.896 5.834-.625 2.002-.714 6.25-.714 7.584z"/><path fill="#FFF" d="M156.372 33.211V23.045c.013-6.098 3.055-9.437 5.4-9.47.08 0 .154.005.223.013.914.079 1.792.646 1.792 1.667 0 .988-.804 1.79-1.79 1.79v.002a.248.248 0 0 1-.25-.25c0-.142.109-.249.25-.249a1.295 1.295 0 0 0 1.291-1.293c0-.687-.561-1.08-1.344-1.17a1.719 1.719 0 0 0-.172-.01c-.926-.009-2.166.729-3.157 2.237-.993 1.505-1.744 3.765-1.744 6.73v10.166a1.295 1.295 0 0 0 1.292 1.293 1.292 1.292 0 1 0 0-2.585.248.248 0 0 1-.25-.25c0-.142.109-.249.25-.249a1.792 1.792 0 1 1-1.791 1.794zm15.143 17.001c1.791 1.458.995 3.772-.457 4.125-2.25.542-3.834 2.125-3.543 4.001-3.957-.333-4.791-4.25-4.791-5.5V30.422c0-8.416 6.707-8.875 6.707-8.875l.293.333c-3.5 1.5-3.041 7.291-3.041 7.291v22.292c0 1.404 1.303 2.542 2.707 2.542 1.709 0 2.198-1.404 1.959-2.126-.375-1.125.166-1.667.166-1.667z"/><g fill="#FFF"><path d="M44.462 157.149h-1.19v-3.795a2.215 2.215 0 0 1-1.934 1.078c-1.975 0-2.773-1.668-2.773-4.021 0-2.131 1.051-3.811 2.704-3.811 1.12 0 1.694.646 2.003 1.064v-3.615h1.19v3.629c.294-.42.841-1.078 1.961-1.078 1.653 0 2.745 1.666 2.745 3.795 0 2.354-.84 4.035-2.815 4.035-.98 0-1.526-.477-1.862-.994h-.028l-.001 3.713zm-2.914-3.795c.673 0 1.724-.436 1.724-2.562 0-1.666-.435-3.109-1.724-3.109-1.204 0-1.694 1.4-1.694 2.871 0 1.875.532 2.8 1.694 2.8zm4.566-5.673c-1.316 0-1.652 1.4-1.652 3.068 0 2.129.967 2.604 1.652 2.604 1.149 0 1.766-.938 1.766-2.814 0-1.472-.589-2.858-1.766-2.858zm5.457 1.386c0-1.777 1.218-2.465 3.054-2.465.588 0 2.745.168 2.745 2.072v4.229c0 .311.154.465.406.465.112 0 .266-.029.406-.059v.91c-.21.057-.393.141-.673.141-1.106 0-1.261-.572-1.316-1.135-.49.52-1.232 1.205-2.676 1.205-1.358 0-2.311-.854-2.311-2.143 0-.885.224-2.188 2.829-2.385 1.947-.152 2.087-.307 2.087-1.076 0-.812-.546-1.191-1.723-1.191-1.415 0-1.611.869-1.681 1.43l-1.147.002zm4.552 1.373c-.196.154-.504.268-2.045.463-.616.084-1.597.252-1.597 1.189 0 .812.435 1.303 1.358 1.303 1.163 0 2.283-.742 2.283-1.734l.001-1.221zm10.403-6.388c-.532 1.387-1.331 1.527-2.494 1.682-1.624.211-2.493 1.053-2.843 2.635.602-.842 1.597-1.414 2.605-1.414 2.072 0 3.193 1.807 3.193 3.67 0 1.861-1.064 3.811-3.544 3.811-1.905 0-3.334-1.314-3.334-4.721 0-2.605 1.177-4.58 3.488-4.934 1.316-.193 1.597-.293 1.793-.729h1.136zm-.812 6.57c0-.785-.364-2.635-2.157-2.635-1.541 0-2.172 1.525-2.172 2.635 0 1.162.364 2.73 2.172 2.73 1.806.002 2.157-1.946 2.157-2.73zm3.833-3.81h1.162v1.051c.406-.602.953-1.26 2.241-1.26 1.961 0 3.067 1.596 3.067 3.697 0 1.766-.7 4.133-3.222 4.133-.994 0-1.652-.477-2.003-1.078v3.795h-1.246l.001-10.338zm1.246 3.685c0 1.607.631 2.855 1.989 2.855.784 0 1.961-.533 1.961-2.508 0-1.219-.126-3.125-1.919-3.125-1.932.003-2.031 1.811-2.031 2.778zm8.932 1.861h.028l3.628-5.547h1.303v7.41h-1.247v-5.547h-.027l-3.628 5.547h-1.303v-7.41h1.246v5.547zm9.072-2.324l3.18-3.225h1.583l-2.829 2.76 2.997 4.65h-1.484l-2.396-3.781-1.051.98v2.801h-1.246v-7.41h1.246v3.225zm6.888-.967c0-1.777 1.218-2.465 3.054-2.465.588 0 2.745.168 2.745 2.072v4.229c0 .311.154.465.406.465.112 0 .266-.029.406-.059v.91c-.21.057-.393.141-.673.141-1.106 0-1.261-.572-1.316-1.135-.49.52-1.232 1.205-2.676 1.205-1.358 0-2.311-.854-2.311-2.143 0-.885.224-2.188 2.829-2.385 1.947-.152 2.087-.307 2.087-1.076 0-.812-.546-1.191-1.723-1.191-1.415 0-1.611.869-1.681 1.43l-1.147.002zm4.551 1.373c-.196.154-.504.268-2.045.463-.616.084-1.597.252-1.597 1.189 0 .812.435 1.303 1.358 1.303 1.163 0 2.283-.742 2.283-1.734l.001-1.221zm10.611 1.918h.027l3.628-5.547h1.303v7.41h-1.246v-5.547h-.028l-3.628 5.547H109.6v-7.41h1.247v5.547zm13.12-5.546v1.037h-2.438v6.373h-1.246v-6.373h-2.438v-1.037h6.122zm2.096 2.255c0-1.777 1.219-2.465 3.054-2.465.588 0 2.745.168 2.745 2.072v4.229c0 .311.154.465.406.465.112 0 .267-.029.406-.059v.91c-.21.057-.392.141-.672.141-1.106 0-1.261-.572-1.316-1.135-.491.52-1.233 1.205-2.676 1.205-1.358 0-2.312-.854-2.312-2.143 0-.885.225-2.188 2.83-2.385 1.946-.152 2.087-.307 2.087-1.076 0-.812-.547-1.191-1.723-1.191-1.415 0-1.611.869-1.682 1.43l-1.147.002zm4.553 1.373c-.196.154-.505.268-2.045.463-.617.084-1.598.252-1.598 1.189 0 .812.435 1.303 1.359 1.303 1.162 0 2.283-.742 2.283-1.734l.001-1.221zm10.557-3.628v7.41h-1.246v-6.373h-2.928v3.375c0 2.242-.742 3.111-1.919 3.111a2.94 2.94 0 0 1-.799-.113v-.967c.099.016.294.029.505.029.7 0 .966-.311.966-2.48v-3.992h5.421zm4.113 2.984h1.766c1.891 0 2.815.979 2.815 2.283 0 1.146-.784 2.143-2.788 2.143h-3.039v-7.41h1.246v2.984zm0 3.391h1.779c1.135 0 1.527-.352 1.527-1.178 0-.771-.519-1.176-1.527-1.176h-1.779v2.354zm12.546 1.035h-1.246v-3.123h-1.583l-1.751 3.123h-1.415l1.835-3.166c-.687-.139-1.667-.826-1.667-2.086 0-1.4 1.009-2.158 2.676-2.158h3.151v7.41zm-1.246-6.373h-1.947c-.91 0-1.387.395-1.387 1.135 0 .771.477 1.137 1.387 1.137h1.947v-2.272zm5.358 1.947h3.462v-2.984h1.245v7.41h-1.245v-3.389h-3.462v3.389h-1.245v-7.41h1.245v2.984zm12.284-.49c-.153-.994-.699-1.584-1.75-1.584-1.541 0-2.031 1.473-2.031 2.789 0 1.273.309 2.844 2.018 2.844.84 0 1.555-.617 1.766-1.752h1.203c-.125 1.178-.84 2.83-3.012 2.83-2.072 0-3.307-1.568-3.307-3.713 0-2.283 1.107-4.117 3.545-4.117 1.947 0 2.676 1.414 2.773 2.703h-1.205zm4.728.728l3.18-3.225h1.583l-2.829 2.76 2.998 4.65h-1.484l-2.396-3.781-1.051.98v2.801h-1.247v-7.41h1.247v3.225h-.001zm8.176 2.324h.028l3.628-5.547h1.303v7.41h-1.246v-5.547h-.027l-3.629 5.547h-1.303v-7.41h1.246v5.547zm13.835 1.864h-1.583l-1.835-2.787-1.778 2.787h-1.567l2.591-3.811-2.465-3.602h1.597l1.709 2.605 1.709-2.605h1.526l-2.493 3.602 2.589 3.811zm8.817-7.41l2.281 5.814 2.283-5.814h1.726v7.41h-1.22v-4.301c0-.783.068-1.596.068-1.596h-.098l-2.325 5.896h-.896l-2.326-5.896h-.098s.068.812.068 1.596v4.301h-1.219v-7.41h1.756zm9.112 2.255c0-1.777 1.22-2.465 3.055-2.465.589 0 2.744.168 2.744 2.072v4.229c0 .311.154.465.406.465.111 0 .268-.029.406-.059v.91c-.211.057-.393.141-.673.141-1.106 0-1.261-.572-1.315-1.135-.49.52-1.232 1.205-2.677 1.205-1.358 0-2.312-.854-2.312-2.143 0-.885.225-2.188 2.83-2.385 1.947-.152 2.086-.307 2.086-1.076 0-.812-.545-1.191-1.723-1.191-1.414 0-1.611.869-1.682 1.43l-1.145.002zm4.553 1.373c-.196.154-.505.268-2.046.463-.615.084-1.598.252-1.598 1.189 0 .812.436 1.303 1.358 1.303 1.163 0 2.282-.742 2.282-1.734l.004-1.221zm9.691-3.628v1.037h-2.44v6.373h-1.246v-6.373h-2.438v-1.037h6.124zm2.134 0h1.164v1.051c.406-.602.951-1.26 2.24-1.26 1.961 0 3.067 1.596 3.067 3.697 0 1.766-.7 4.133-3.222 4.133-.994 0-1.652-.477-2.004-1.078v3.795h-1.246v-10.338h.001zm1.248 3.685c0 1.607.629 2.855 1.988 2.855.784 0 1.961-.533 1.961-2.508 0-1.219-.125-3.125-1.918-3.125-1.932.003-2.031 1.811-2.031 2.778zm7.644-1.43c0-1.777 1.219-2.465 3.056-2.465.588 0 2.744.168 2.744 2.072v4.229c0 .311.153.465.406.465.109 0 .268-.029.404-.059v.91c-.211.057-.393.141-.672.141-1.105 0-1.262-.572-1.315-1.135-.49.52-1.231 1.205-2.677 1.205-1.357 0-2.312-.854-2.312-2.143 0-.885.226-2.188 2.83-2.385 1.947-.152 2.089-.307 2.089-1.076 0-.812-.548-1.191-1.725-1.191-1.415 0-1.611.869-1.682 1.43l-1.146.002zm4.553 1.373c-.194.154-.504.268-2.045.463-.614.084-1.597.252-1.597 1.189 0 .812.436 1.303 1.357 1.303 1.162 0 2.282-.742 2.282-1.734l.003-1.221zm9.098-1.134c-.152-.994-.698-1.584-1.75-1.584-1.541 0-2.03 1.473-2.03 2.789 0 1.273.31 2.844 2.019 2.844.84 0 1.555-.617 1.766-1.752h1.203c-.125 1.178-.84 2.83-3.01 2.83-2.074 0-3.309-1.568-3.309-3.713 0-2.283 1.105-4.117 3.544-4.117 1.946 0 2.676 1.414 2.772 2.703h-1.205zm6.511-2.703c2.366 0 3.432 2.002 3.432 3.908 0 1.904-1.063 3.922-3.432 3.922s-3.435-2.018-3.435-3.922c.003-1.907 1.067-3.908 3.435-3.908zm0 6.751c1.776 0 2.155-1.85 2.155-2.844 0-.996-.379-2.83-2.155-2.83-1.779 0-2.157 1.834-2.157 2.83 0 .995.378 2.844 2.157 2.844zm5.894-6.542h3.36c1.64 0 2.423.869 2.423 1.895 0 .881-.604 1.414-1.246 1.596.784.182 1.682.688 1.682 1.961 0 1.178-.951 1.961-2.717 1.961h-3.502v-7.413zm1.245 3.068h1.808c1.08 0 1.484-.311 1.484-1.121 0-.588-.363-.91-1.457-.91h-1.835v2.031zm0 3.307h2.229c.966 0 1.498-.322 1.498-1.148 0-.799-.616-1.178-1.625-1.178h-2.103v2.326h.001zM47.222 125.392c.217 1.949.596 4.982 2.924 5.74 1.571.486 2.979.486 3.521.486.271 0 .434.055.434.271 0 .324-.488.486-1.138.486-1.191 0-7.04-.162-9.044-.324-1.245-.107-1.516-.271-1.516-.541 0-.217.108-.326.379-.379.271-.055.325-.977.217-1.949l-2.6-27.943h-.162l-13.268 28.158c-1.138 2.383-1.3 2.871-1.787 2.871-.38 0-.65-.541-1.679-2.49-1.408-2.652-6.065-12.021-6.336-12.562-.488-.977-6.553-13.971-7.148-15.435h-.217l-2.166 25.126c-.055.867-.055 1.844-.055 2.764 0 .812.596 1.516 1.408 1.68a9.963 9.963 0 0 0 2.058.271c.217 0 .434.107.434.271 0 .379-.325.486-.975.486-2.004 0-4.604-.162-5.036-.162-.487 0-3.087.162-4.549.162-.542 0-.921-.107-.921-.486 0-.162.271-.271.541-.271.434 0 .812 0 1.625-.162 1.787-.324 1.949-2.438 2.166-4.494l3.899-35.31c.054-.596.271-.975.596-.975.324 0 .541.217.812.812l16.57 34.062L42.13 91.546c.217-.487.434-.866.812-.866s.542.433.65 1.462l3.63 33.25z"/><path d="M72.672 92.791c.65-1.787.866-2.112 1.191-2.112.325 0 .542.271 1.191 1.95.812 2.058 9.314 24.423 12.618 32.651 1.949 4.82 3.52 5.688 4.657 6.014.812.271 1.624.324 2.166.324.324 0 .541.055.541.324 0 .324-.487.434-1.083.434-.812 0-4.766 0-8.502-.107-1.029-.055-1.625-.055-1.625-.379 0-.217.163-.324.38-.379.324-.109.649-.596.324-1.463l-5.036-13.321c-.108-.217-.217-.325-.487-.325H67.365c-.271 0-.434.162-.542.436l-3.249 9.586c-.487 1.354-.758 2.652-.758 3.627 0 1.084 1.137 1.57 2.058 1.57h.541c.38 0 .542.107.542.324 0 .324-.325.434-.812.434-1.3 0-3.628-.162-4.224-.162-.596 0-3.574.162-6.119.162-.704 0-1.029-.107-1.029-.434 0-.217.217-.324.487-.324.379 0 1.138-.055 1.57-.107 2.491-.326 3.574-2.383 4.549-5.09l12.293-33.633zm5.632 21.661c.271 0 .271-.162.217-.381l-5.145-14.619c-.271-.812-.541-.812-.812 0l-4.766 14.619c-.108.271 0 .381.163.381h10.343zm32.221 2.221c0 5.198 0 9.477.271 11.75.163 1.57.487 2.762 2.112 2.979.758.109 1.949.219 2.437.219.325 0 .434.16.434.324 0 .271-.271.434-.866.434-2.979 0-6.391-.162-6.661-.162s-3.683.162-5.308.162c-.596 0-.866-.107-.866-.434 0-.164.108-.324.434-.324.487 0 1.137-.107 1.624-.219 1.084-.217 1.354-1.406 1.571-2.979.271-2.273.271-6.552.271-11.75V93.766l-8.015.108c-3.357.054-4.657.434-5.523 1.731-.596.921-.759 1.3-.921 1.681-.162.434-.325.542-.542.542-.162 0-.271-.163-.271-.488 0-.542 1.083-5.199 1.191-5.632.108-.325.325-1.029.542-1.029.379 0 .92.542 2.383.65 1.57.162 3.628.271 4.277.271h20.308c1.733 0 2.979-.106 3.845-.271.812-.108 1.3-.271 1.517-.271.271 0 .271.325.271.65 0 1.625-.162 5.359-.162 5.957 0 .485-.162.704-.379.704-.271 0-.379-.163-.434-.923l-.054-.596c-.163-1.625-1.462-2.87-6.661-2.979l-6.823-.108v22.908l-.002.002zm25.884-9.531c0-8.448 0-9.964-.108-11.697-.107-1.841-.541-2.708-2.328-3.087-.434-.106-1.354-.163-1.841-.163-.217 0-.434-.106-.434-.323 0-.325.271-.435.866-.435 1.246 0 2.708 0 3.899.056l2.22.106c.38 0 11.156 0 12.401-.054 1.029-.054 1.896-.162 2.329-.271.271-.054.487-.271.758-.271.162 0 .217.217.217.485 0 .381-.271 1.029-.434 2.547-.054.542-.162 2.924-.271 3.572-.055.271-.162.598-.379.598-.325 0-.434-.271-.434-.704 0-.379-.054-1.3-.325-1.95-.379-.866-.92-1.516-3.845-1.841-.92-.108-6.823-.163-7.419-.163-.217 0-.325.163-.325.542v14.945c0 .379.055.542.325.542.704 0 7.365 0 8.61-.108 1.3-.107 2.058-.217 2.546-.758.379-.435.596-.704.812-.704.163 0 .271.106.271.432s-.271 1.246-.434 3.033c-.108 1.083-.217 3.087-.217 3.466 0 .435 0 1.028-.379 1.028-.271 0-.379-.217-.379-.486 0-.542 0-1.084-.217-1.787-.217-.759-.704-1.68-2.816-1.896-1.462-.162-6.823-.271-7.743-.271-.271 0-.38.162-.38.379v4.768c0 1.841-.054 8.123 0 9.26.163 3.736.976 4.441 6.282 4.441 1.408 0 3.791 0 5.199-.598 1.407-.596 2.058-1.68 2.437-3.898.108-.598.217-.812.487-.812.325 0 .325.436.325.812 0 .434-.434 4.113-.704 5.254-.379 1.408-.812 1.408-2.925 1.408-4.062 0-7.04-.109-9.151-.164-2.112-.107-3.412-.162-4.225-.162-.107 0-1.028 0-2.166.055-1.083 0-2.328.107-3.141.107-.596 0-.866-.107-.866-.434 0-.164.108-.326.433-.326.487 0 1.138-.105 1.625-.217 1.083-.217 1.354-1.408 1.57-2.979.271-2.273.271-6.553.271-11.75v-9.528l.003.001zm33.031 0c0-8.448 0-9.964-.106-11.697-.106-1.841-.542-2.708-2.328-3.087-.435-.106-1.354-.163-1.842-.163-.218 0-.435-.106-.435-.323 0-.325.271-.435.867-.435 2.438 0 5.848.162 6.118.162.597 0 4.711-.162 6.39-.162 3.412 0 7.041.325 9.91 2.382 1.354.977 3.736 3.628 3.736 7.365 0 4.007-1.68 8.014-6.552 12.509 4.44 5.688 8.122 10.506 11.264 13.863 2.925 3.086 5.253 3.682 6.606 3.898 1.029.16 1.787.16 2.111.16.271 0 .486.162.486.326 0 .324-.325.434-1.3.434h-3.847c-3.031 0-4.387-.271-5.795-1.027-2.328-1.246-4.224-3.9-7.311-7.961-2.273-2.979-4.818-6.607-5.902-8.016-.217-.218-.379-.324-.703-.324l-6.662-.108c-.271 0-.379.163-.379.435v1.301c0 5.198 0 9.477.271 11.75.163 1.57.486 2.762 2.111 2.979.759.109 1.949.219 2.438.219.325 0 .434.16.434.324 0 .271-.271.434-.864.434-2.979 0-6.392-.162-6.661-.162-.055 0-3.466.162-5.09.162-.598 0-.867-.107-.867-.434 0-.164.107-.324.436-.324.485 0 1.137-.107 1.623-.219 1.084-.217 1.354-1.406 1.57-2.979.271-2.273.271-6.552.271-11.75v-9.532h.002zm4.332 4.711c0 .271.108.487.379.65.812.484 3.306.866 5.688.866 1.302 0 2.813-.163 4.062-1.029 1.896-1.3 3.304-4.223 3.304-8.339 0-6.771-3.574-10.831-9.368-10.831-1.624 0-3.087.162-3.628.325-.271.106-.435.323-.435.648v17.708l-.002.002zm41.049 4.927c0 7.961.218 11.428 1.191 12.402.865.865 2.273 1.244 6.498 1.244 2.869 0 5.252-.053 6.553-1.625.703-.865 1.244-2.219 1.408-3.248.053-.434.161-.705.486-.705.271 0 .324.217.324.812 0 .595-.379 3.846-.812 5.416-.379 1.244-.541 1.463-3.412 1.463-3.896 0-6.715-.109-8.988-.164-2.273-.107-3.952-.162-5.522-.162-.217 0-1.138.055-2.221.055-1.083.055-2.272.107-3.087.107-.598 0-.866-.107-.866-.434 0-.164.106-.326.435-.326.486 0 1.137-.105 1.625-.217 1.082-.217 1.354-1.408 1.568-2.979.271-2.273.271-6.552.271-11.75v-9.531c0-8.448 0-9.964-.107-11.697-.107-1.841-.542-2.708-2.329-3.087-.433-.106-1.354-.163-1.841-.163-.217 0-.434-.106-.434-.323 0-.325.271-.435.864-.435 2.438 0 5.851.162 6.12.162s4.225-.162 5.85-.162c.597 0 .867.108.867.435 0 .216-.219.323-.436.323-.379 0-1.139.056-1.787.163-1.568.271-2.003 1.191-2.109 3.087-.109 1.733-.109 3.249-.109 11.697v9.642zm24.044-9.638c0-8.448 0-9.964-.108-11.697-.105-1.841-.541-2.708-2.326-3.087-.436-.106-1.354-.163-1.843-.163-.217 0-.435-.106-.435-.323 0-.325.271-.435.865-.435 2.438 0 5.74.162 6.229.162s3.735-.162 5.36-.162c.597 0 .865.108.865.435 0 .216-.216.323-.433.323-.379 0-.704.056-1.354.163-1.461.219-1.895 1.191-2.002 3.087-.107 1.733-.107 3.249-.107 11.697v7.581c0 7.798 1.73 11.155 4.062 13.376 2.652 2.49 5.09 2.979 8.178 2.979 3.304 0 6.553-1.57 8.502-3.898 2.49-3.088 3.142-7.69 3.142-13.268v-6.771c0-8.448 0-9.964-.108-11.697-.106-1.841-.541-2.708-2.328-3.087-.434-.106-1.354-.163-1.842-.163-.217 0-.434-.106-.434-.323 0-.325.271-.435.865-.435 2.438 0 5.416.162 5.74.162.381 0 2.926-.162 4.551-.162.596 0 .865.108.865.435 0 .216-.218.323-.435.323-.379 0-.704.056-1.354.163-1.463.325-1.896 1.191-2.004 3.087-.107 1.733-.107 3.249-.107 11.697v5.794c0 5.851-.648 12.349-4.982 16.192-3.896 3.465-7.96 4.008-11.154 4.008-1.84 0-7.312-.217-11.154-3.846-2.653-2.545-4.713-6.336-4.713-14.242l-.001-7.905zm54.965 4.332l-8.664-14.567c-1.246-2.11-2.383-3.682-4.226-4.33-.865-.271-1.948-.381-2.273-.381-.324 0-.486-.16-.486-.379 0-.271.217-.379.922-.379 1.517 0 5.9.162 6.336.162.485 0 3.248-.162 5.09-.162.759 0 .921.108.921.379s-.162.379-.487.379-1.027 0-1.462.163c-.487.163-.649.542-.649.92 0 .542.217 1.191.541 1.787 2.274 4.278 4.495 8.286 7.312 12.943 1.625-2.329 7.419-11.589 7.961-12.726.379-.812.541-1.302.541-1.95 0-.379-.379-.812-.92-.977-.542-.163-1.3-.163-1.625-.163s-.487-.106-.487-.379c0-.217.271-.379.921-.379 2.06 0 4.332.162 4.819.162s2.708-.162 4.549-.162c.596 0 .866.162.866.379 0 .219-.216.379-.596.379-.381 0-1.191.056-1.787.271-1.57.487-2.601 2.058-4.169 4.386l-8.72 13.105c1.027 1.678 10.288 17.438 11.427 18.896.864 1.139 1.625 1.949 3.193 2.438.758.217 1.57.323 1.896.323.271 0 .433.108.433.325 0 .271-.271.434-.758.434-3.304 0-5.902 0-8.664-.107-1.408-.055-1.68-.162-1.68-.434 0-.218.106-.379.324-.436.271-.105.76-.646.271-1.516-2.924-5.307-6.064-10.668-9.312-16.138l-8.447 14.351c-.487.867-.704 1.842-.704 2.383s.379.92.864 1.029c.326.055.761.106 1.029.106.271 0 .434.161.434.38 0 .271-.271.379-.648.379-1.3 0-4.711-.162-5.197-.162-.488 0-3.143.162-4.93.162-.434 0-.541-.162-.541-.379 0-.219.162-.38.434-.38.435 0 1.246-.054 2.06-.271 1.624-.434 2.762-1.625 4.494-4.387l9.794-15.477z"/></g></svg>