<svg xmlns="http://www.w3.org/2000/svg" xmlns:xlink="http://www.w3.org/1999/xlink" width="315.004" height="157.149" viewBox="0 0 315.004 157.149"><path fill="#9D7E40" d="M159.503 0C136.802.002 118.4 18.403 118.4 41.103a40.921 40.921 0 0 0 4.932 19.536c.469-.481.979-.951 1.524-1.41a38.913 38.913 0 0 1-4.456-18.126c0-10.8 4.375-20.57 11.451-27.648 7.081-7.077 16.849-11.453 27.65-11.453 10.8 0 20.568 4.376 27.649 11.453 7.076 7.078 11.45 16.847 11.45 27.648a38.947 38.947 0 0 1-3.483 16.133c.584.38 1.137.771 1.665 1.171a40.944 40.944 0 0 0 3.819-17.304C200.604 18.403 182.202.002 159.503 0z"/><path fill="#9D7E40" d="M159.503 4.022c-20.481 0-37.081 16.602-37.081 37.08a36.897 36.897 0 0 0 4.058 16.86c.202-.145.415-.284.624-.426a36.165 36.165 0 0 1-3.933-16.435c0-10.033 4.067-19.114 10.642-25.689s15.656-10.643 25.69-10.643c10.033 0 19.112 4.067 25.689 10.643 6.575 6.575 10.64 15.656 10.64 25.689 0 5.24-1.117 10.215-3.112 14.714.223.12.442.241.658.364a36.936 36.936 0 0 0 3.205-15.078c0-20.477-16.602-37.079-37.08-37.079zm34.448 62.107c0 1.016-.634 1.375-1.115 1.312-.881-.114-1.35-.571-1.5-1.438-.129-.75.422-2.156 2.026-2.156 1.287 0 2.376 1.312 2.186 2.989-.089.787-.52 3.083-3.075 3.083s-4.374-2.208-8.057-5.958c-1.832-1.866-3.491-2.597-4.698-2.861-1.218-.267-1.972-.224-1.972-.056s.764 0 1.903.374c1.195.392 2.804 1.193 4.378 2.835 3.075 3.208 5.475 6.156 8.457 6.156 2.983 0 3.758-3.075 3.801-3.573.174-2.04-1.305-3.333-2.848-3.333-1.641 0-2.653 1.281-2.588 2.656.049 1.053.967 1.953 2.062 1.953 1.095 0 1.998-.79 1.998-1.844 0 0 .064-.766-.439-.828-.498-.06-.519.376-.519.689z"/><defs><path id="a" d="M126.726 71.802c-2.243-1.96-3.973-2.673-7.712-2.394 2.638 3.598 8.872 4.351 11.345 5.134-1.065.055-1.914.46-2.508 1.272 1.759 1.077 3.5 1.307 5.681.244-1.103.646-1.739 1.561-1.708 2.218 2.085.725 3.213-1.362 5.071-1.684.729-.123 1.224-.536 3.341.094-3.341-.094-4.91 2.483-5.797 3.604 2.64.563 4.487.189 5.903-.697-.333.621-.464 1.167-.333 1.612 2.673.165 3.789-2.606 5.686-3.912.932-.499 1.431-.405 1.871-.218-2.309 1.613-3.021 3.119-2.501 4.539 1.72.075 2.938-.506 3.538-1.885.72.902 1.612.78 2.697-.421 3.007-6.942 10.812-8.172 13.391-8.517-3.268 1.016-3.709 1.462-5.729 2.91-.494 1.203-1.897 1.52-3.399 1.731-.552.126-.969.33-1.146.683-.046.476.208.778.66.961-.858.464-1.458.997-1.392 1.704a3.703 3.703 0 0 0 2.307-.631c-1.389 2.14-1.312 3.408-1.093 4.59 3.308-.27 3.531-3.073 5.469-3.411-.228.781-.102 1.373.418 1.763 1.489-1.767 1.426-3.237 1.415-5.114.153.89.495 1.035.938 1.407 1.615-5.716 6.47-4.965 12.394-1.402-5.744-8.852-14.065-6.193-19.674-3.441-8 3.927-17.2 4.201-24.186.905-2.905-1.375-4.066-2.703-4.947-1.644zm17.909 5.278c-1.037.674-2.063 1.361-2.771 2.466-.001-.676.235-1.122 1.094-1.839-1.053.331-1.802.512-2.578 1.274.162-.479.488-.77 1.19-1.247-1.032.218-1.733.356-2.823.88.31-.508.968-.859 1.971-1.062 1.927-.102 3.111-.269 3.917-.472zm5.678 2.172c1.053-2.301 2.708-4.134 5.15-5.371-5.586 1.553-7.056 3.925-9.027 6.194 1.794-1.524 3.506-3.232 5.542-4.232-1.491 1.22-1.653 2.32-1.665 3.409zm22.472-5.766c-4.045-3.616-7.967-1.777-10.205.013l.007-.004-.008.009a20.99 20.99 0 0 0-.52.426c-1.638 1.3-3.541 2.347-6.279 2.597 1.556.36 3.098.061 4.614-1.042l.003-.003a23.925 23.925 0 0 0-3.503 4.606c1.463-1.793 2.904-3.629 4.8-4.72-1.018 1.046-1.288 1.987-1.555 2.934 1.786-3.782 6.202-8.338 12.646-4.816z"/></defs><use xlink:href="#a" overflow="visible" fill-rule="evenodd" clip-rule="evenodd" fill="#9D7E40"/><path fill-rule="evenodd" clip-rule="evenodd" fill="#9D7E40" d="M175.477 75.983c-.969.47-2.541.521-3.686.521-3.129 0-6.699-2.601-6.194-6.666.621-5.001 5.124-7.709 9.198-7.709 5.758 0 7.932 2.589 9.776 4.542 1.574 1.666 4.02 4.833 7.872 4.833 2.775 0 5.368-2.442 5.095-5.791-.288-3.537-3.73-6.003-7.826-7.174-1.577-.451-3.67.069-3.773-.576-.059-.371 1.283-1.823 4.433-1.042 3.025.75 7.396 3.375 7.893 8.583.452 4.729-3.418 7.562-7.022 8.344-3.014.653-6.198 1.656-6.276 3.734-.031.578.261 1.137.062 1.214-.295.114-1.057-.229-1.159-1.917-.222-3.625-1.448-6.561-4.962-9.875-2.341-2.208-5.817-3.299-9.26-1.719-3.2 1.469-3.552 4.97-3.056 6.636.498 1.666 2.165 4.836 8.463 3.461l.422.601z"/><path fill="#9D7E40" d="M182.888 65.798V26.047c.002-3.775 3.19-3.832 3.207-3.834h.002a.25.25 0 0 1 .249.249.251.251 0 0 1-.249.251c-.004.026-2.703-.059-2.709 3.334 0 3.582 0 39.748.002 39.751a.25.25 0 1 1-.502 0z"/><path fill="#9D7E40" d="M180.597 35.837v10.626c0 4.75.667 6.292 1.917 7.292.877.701 1.533.664 2.354 1.062.729.354 1.021.938.938 1.146-.061.151-.525-.311-1.332-.444-1.04-.172-2.547-.052-4.001 1.402-2.354 2.354-4.251 4.937-7.709 4.937-2.167 0-4-1.83-4-3.603s1.437-3.208 3.209-3.208c1.771 0 3.291 1.791 2.541 4.124 0 0-.666-.292-1.041-.625s-1.375-.708-2.125.167.291 2.583 1.375 2.583c1.083 0 4.166-.542 3.874-7.625V39.545s.209-3.083-2.167-5.208c-1.602-1.434-3.765-2.166-4.022-4.137-.269-.571.064-2.279.356-2.279s.434 1.015 1 1.75c.417.541.917 1.166 2.334 1 3.399-.398 5.021-5.883 5.791-7.229 1-1.75 3.625-4.562 7.459-3.896l-.375.667s-6.459-1.126-6.459 10.081c0 4.791.083 5.543.083 5.543zM145.121 52.34c0-.143.002-.271 0-.378l.002-29-.002-.38c.002-1.248.078-3.791 2.406-3.829 2.327.038 2.402 2.583 2.404 3.829v10.629a1.79 1.79 0 1 1-3.582 0c0-.989.801-1.79 1.79-1.79.138 0 .25.11.25.248a.25.25 0 0 1-.25.25 1.295 1.295 0 0 0-1.292 1.292 1.295 1.295 0 0 0 1.292 1.293 1.294 1.294 0 0 0 1.292-1.293V22.582c.002-.632-.029-1.502-.29-2.179-.276-.678-.691-1.139-1.613-1.151-.924.013-1.341.474-1.615 1.149-.263.677-.292 1.549-.292 2.181l.002.38v29l-.002.378c0 .632.029 1.502.292 2.18.275.679.69 1.14 1.615 1.15.922-.011 1.337-.474 1.613-1.15.261-.678.292-1.55.29-2.18V41.004c0-.714-.578-1.29-1.292-1.292a1.295 1.295 0 0 0-1.292 1.292 1.295 1.295 0 0 0 1.292 1.293.25.25 0 0 1 .25.249.25.25 0 0 1-.25.25 1.792 1.792 0 1 1 0-3.585c.991 0 1.792.804 1.792 1.793V52.34c-.002 1.245-.077 3.791-2.404 3.83-2.328-.039-2.403-2.583-2.406-3.83zm11.249 0l.002-.378V41.004a1.792 1.792 0 0 1 3.582 0c0 .988-.801 1.792-1.79 1.792a.249.249 0 0 1-.25-.25c0-.138.11-.249.25-.249a1.297 1.297 0 0 0 1.292-1.293 1.295 1.295 0 0 0-1.292-1.292 1.296 1.296 0 0 0-1.294 1.292V52.34c-.002.63.029 1.502.29 2.18.275.677.693 1.14 1.615 1.15.923-.011 1.339-.472 1.612-1.15.264-.678.293-1.548.293-2.18-.002-.14-.002-.268 0-.378V29.611c0-.008-.027-.275-.027-.711.002-1.601.353-5.599 3.941-6.924a.251.251 0 0 1 .321.148.253.253 0 0 1-.15.321c-3.242 1.166-3.614 4.893-3.614 6.454 0 .415.027.659.027.686v22.754c-.002 1.247-.077 3.791-2.403 3.83-2.328-.038-2.403-2.584-2.405-3.829z"/><path fill="#9D7E40" d="M147.283 36.337h11.875v1.542h-11.875z"/><path fill="#9D7E40" d="M155.05 25.712v29.292c0 1.875.339 3.312 1.831 4s2.78-.562 2.915-1.125c0 0 .66 2.6-1.83 3.312-1.966.562-3.661-1.188-3.661-1.188s2.834 2.253 1.017 5c-2.068 3.125-1.593 3.875-2.102 3.875-.508 0-.034-.75-2.102-3.875-1.817-2.747 1.017-5 1.017-5s-1.695 1.75-3.661 1.188c-2.491-.713-1.831-3.312-1.831-3.312.135.562 1.424 1.812 2.916 1.125s1.831-2.125 1.831-4V25.755c0-1.333.458-8.333-4.042-8.333-4.083 0-3.75 7.208-3.75 8.333v24.999c0 .959.623 10.572-2.792 15.333-2.958 4.125-6.417 4.71-8.667 4.543-3.822-.284-7.292-2.918-7.292-6.335 0-3.084 2.5-5.584 5.583-5.584s5.521 2.563 4.833 5.543c-.383 1.66-1.583 2.917-3.75 2.792.561-.41.917-1.086.917-1.834 0-1.242-1.007-2.25-2.25-2.25s-2.297 1.02-2.375 2.271c-.083 1.333.5 3.646 3.792 4.604 3.587 1.044 7.729-2.542 8.729-4.604.605-1.248 1.493-2.86 1.271-6.291-.104-1.604-.458-5.041-4.646-6.208 0 0 4.688-2.417 4.688-8.479v-7.583s-4.146 2.958-2.729 5.521c0 0-.465.102-.854-.438-.542-.75-.626-1.334-1.604-1.334a1.771 1.771 0 0 0 0 3.542s-.771.749-2.021-.001c-1.587-.952-1.667-3.833-.25-5.708s3.292-3.751 3.167-4.709c0 0 .833.084 1.25 1.709.272 1.062.958 1.25 1.417 1.25 1.042 0 1.625-.917 1.625-2.792v-5.333s.167-3.542-2.542-5.417-4.521-3.271-3.708-5.958c0 0 .308.62 1.058 1.487.627.724 1.708 1.389 3.567 1.389 2.458 0 4.566-2.068 5.125-2.792 1.562-2.021 2.75-4.876 1.958-7.709 0 0 6.167-.292 8 8.958 0 0 1.083-7.126 6.833-8.167 3.916-.709 7.345 1.362 8.122 4.382s-.932 6.071-3.817 6.814c-2.887.744-5.222-.696-5.68-3.529.559.484 1.306.833 2.104.833a3.187 3.187 0 0 0 3.188-3.187c0-1.761-1.434-3.04-3.188-3.188-1.979-.166-5.391 1.02-6.896 5.834-.625 2.001-.714 6.249-.714 7.583z"/><path fill="#9D7E40" d="M156.372 33.211V23.045c.013-6.096 3.055-9.435 5.402-9.47.08 0 .154.005.221.013.914.079 1.792.646 1.792 1.667a1.79 1.79 0 0 1-1.79 1.79v.002a.25.25 0 0 1-.25-.25c0-.14.111-.249.25-.249a1.295 1.295 0 0 0 1.291-1.293c0-.685-.559-1.08-1.343-1.17a1.717 1.717 0 0 0-.171-.01c-.926-.007-2.166.73-3.159 2.239-.993 1.505-1.744 3.763-1.744 6.73V33.21a1.295 1.295 0 0 0 1.292 1.293 1.292 1.292 0 1 0 0-2.585.249.249 0 0 1-.25-.25c0-.14.11-.249.25-.249a1.792 1.792 0 0 1 0 3.583 1.79 1.79 0 0 1-1.791-1.791zm15.142 17.001c1.791 1.458.996 3.774-.458 4.125-2.25.542-3.833 2.125-3.542 4.001-3.958-.333-4.792-4.25-4.792-5.5V30.422c0-8.416 6.708-8.875 6.708-8.875l.293.333c-3.501 1.5-3.042 7.291-3.042 7.291v22.292c0 1.404 1.304 2.542 2.708 2.542 1.709 0 2.199-1.404 1.959-2.126-.375-1.125.166-1.667.166-1.667z"/><g fill="#9D7E40"><path d="M44.462 157.149h-1.19v-3.795a2.219 2.219 0 0 1-1.934 1.078c-1.975 0-2.773-1.668-2.773-4.021 0-2.129 1.051-3.809 2.704-3.809 1.12 0 1.694.645 2.003 1.064v-3.615h1.19v3.629c.294-.42.841-1.078 1.961-1.078 1.653 0 2.745 1.666 2.745 3.795 0 2.354-.84 4.035-2.815 4.035-.98 0-1.526-.477-1.862-.994h-.028v3.711zm-2.914-3.795c.673 0 1.724-.436 1.724-2.564 0-1.666-.435-3.109-1.724-3.109-1.204 0-1.694 1.4-1.694 2.871 0 1.877.532 2.802 1.694 2.802zm4.566-5.673c-1.316 0-1.652 1.4-1.652 3.068 0 2.129.967 2.605 1.652 2.605 1.149 0 1.766-.939 1.766-2.816 0-1.471-.589-2.857-1.766-2.857zm5.457 1.386c0-1.779 1.218-2.465 3.054-2.465.588 0 2.745.168 2.745 2.072v4.23c0 .309.154.463.406.463.112 0 .266-.029.406-.057v.91c-.21.057-.393.141-.673.141-1.106 0-1.261-.574-1.316-1.135-.49.518-1.232 1.205-2.676 1.205-1.358 0-2.311-.855-2.311-2.143 0-.883.224-2.186 2.829-2.383 1.947-.154 2.087-.307 2.087-1.078 0-.812-.546-1.191-1.723-1.191-1.415 0-1.611.869-1.681 1.43h-1.147zm4.552 1.373c-.196.154-.504.266-2.045.463-.616.084-1.597.252-1.597 1.189 0 .812.435 1.303 1.358 1.303 1.163 0 2.283-.742 2.283-1.736v-1.219zm10.403-6.388c-.532 1.387-1.331 1.527-2.494 1.682-1.624.211-2.493 1.051-2.843 2.633.602-.84 1.597-1.414 2.605-1.414 2.072 0 3.193 1.807 3.193 3.67s-1.064 3.811-3.544 3.811c-1.905 0-3.334-1.316-3.334-4.721 0-2.605 1.177-4.58 3.488-4.932 1.316-.195 1.597-.293 1.793-.729h1.136zm-.812 6.57c0-.785-.364-2.633-2.157-2.633-1.541 0-2.172 1.525-2.172 2.633 0 1.162.364 2.732 2.172 2.732 1.806 0 2.157-1.947 2.157-2.732zm3.833-3.81h1.162v1.051c.406-.602.953-1.26 2.241-1.26 1.961 0 3.067 1.596 3.067 3.697 0 1.766-.7 4.133-3.222 4.133-.994 0-1.652-.477-2.003-1.078v3.795h-1.246v-10.338zm1.246 3.685c0 1.609.631 2.857 1.989 2.857.784 0 1.961-.533 1.961-2.508 0-1.219-.126-3.125-1.919-3.125-1.932.001-2.031 1.809-2.031 2.776zm8.932 1.861h.028l3.628-5.547h1.303v7.41h-1.247v-5.547h-.027l-3.628 5.547h-1.303v-7.41h1.246v5.547zm9.072-2.324l3.18-3.223h1.583l-2.829 2.76 2.997 4.65h-1.484l-2.396-3.781-1.051.98v2.801h-1.246v-7.41h1.246v3.223zm6.888-.967c0-1.779 1.218-2.465 3.054-2.465.588 0 2.745.168 2.745 2.072v4.23c0 .309.154.463.406.463.112 0 .266-.029.406-.057v.91c-.21.057-.393.141-.673.141-1.106 0-1.261-.574-1.316-1.135-.49.518-1.232 1.205-2.676 1.205-1.358 0-2.311-.855-2.311-2.143 0-.883.224-2.186 2.829-2.383 1.947-.154 2.087-.307 2.087-1.078 0-.812-.546-1.191-1.723-1.191-1.415 0-1.611.869-1.681 1.43h-1.147zm4.551 1.373c-.196.154-.504.266-2.045.463-.616.084-1.597.252-1.597 1.189 0 .812.435 1.303 1.358 1.303 1.163 0 2.283-.742 2.283-1.736v-1.219zm10.611 1.918h.027l3.628-5.547h1.303v7.41h-1.246v-5.547h-.028l-3.628 5.547H109.6v-7.41h1.247v5.547zm13.12-5.546v1.037h-2.438v6.373h-1.246v-6.373h-2.438v-1.037h6.122zm2.096 2.255c0-1.779 1.219-2.465 3.054-2.465.588 0 2.745.168 2.745 2.072v4.23c0 .309.154.463.406.463.112 0 .267-.029.406-.057v.91c-.21.057-.392.141-.672.141-1.106 0-1.261-.574-1.316-1.135-.491.518-1.233 1.205-2.676 1.205-1.358 0-2.312-.855-2.312-2.143 0-.883.225-2.186 2.83-2.383 1.946-.154 2.087-.307 2.087-1.078 0-.812-.547-1.191-1.723-1.191-1.415 0-1.611.869-1.682 1.43h-1.147zm4.553 1.373c-.196.154-.505.266-2.045.463-.617.084-1.598.252-1.598 1.189 0 .812.435 1.303 1.359 1.303 1.162 0 2.283-.742 2.283-1.736v-1.219zm10.557-3.628v7.41h-1.246v-6.373h-2.928v3.375c0 2.242-.742 3.111-1.919 3.111-.336 0-.603-.057-.799-.113v-.967c.099.016.294.029.505.029.7 0 .966-.309.966-2.48v-3.992h5.421zm4.113 2.984h1.766c1.891 0 2.815.98 2.815 2.283 0 1.148-.784 2.143-2.788 2.143h-3.039v-7.41h1.246v2.984zm0 3.391h1.779c1.135 0 1.527-.352 1.527-1.178 0-.77-.519-1.176-1.527-1.176h-1.779v2.354zm12.546 1.035h-1.246v-3.123h-1.583l-1.751 3.123h-1.415l1.835-3.166c-.687-.139-1.667-.826-1.667-2.086 0-1.4 1.009-2.158 2.676-2.158h3.151v7.41zm-1.246-6.373h-1.947c-.91 0-1.387.393-1.387 1.135 0 .77.477 1.135 1.387 1.135h1.947v-2.27zm5.36 1.947h3.46v-2.984h1.246v7.41h-1.246v-3.389h-3.46v3.389h-1.247v-7.41h1.247v2.984zm12.281-.49c-.154-.994-.7-1.584-1.751-1.584-1.541 0-2.031 1.473-2.031 2.789 0 1.273.309 2.844 2.018 2.844.84 0 1.555-.617 1.765-1.752h1.204c-.126 1.178-.84 2.83-3.012 2.83-2.072 0-3.306-1.568-3.306-3.713 0-2.283 1.107-4.117 3.544-4.117 1.947 0 2.676 1.414 2.773 2.703h-1.204zm4.729.728l3.18-3.223h1.583l-2.83 2.76 2.998 4.65h-1.485l-2.395-3.781-1.051.98v2.801h-1.247v-7.41h1.247v3.223zm8.176 2.324h.028l3.628-5.547h1.303v7.41h-1.247v-5.547h-.028l-3.628 5.547h-1.303v-7.41h1.247v5.547zm13.835 1.864h-1.583l-1.835-2.787-1.779 2.787h-1.568l2.591-3.811-2.465-3.6h1.597l1.709 2.605 1.709-2.605h1.526l-2.493 3.6 2.591 3.811zm8.817-7.41l2.283 5.814 2.283-5.814h1.724v7.41h-1.219v-4.301c0-.783.069-1.596.069-1.596h-.098l-2.325 5.896h-.896l-2.325-5.896h-.098s.069.812.069 1.596v4.301h-1.219v-7.41h1.752zm9.112 2.255c0-1.779 1.219-2.465 3.054-2.465.589 0 2.746.168 2.746 2.072v4.23c0 .309.153.463.406.463.111 0 .266-.029.406-.057v.91c-.211.057-.393.141-.673.141-1.106 0-1.261-.574-1.316-1.135-.49.518-1.233 1.205-2.676 1.205-1.358 0-2.312-.855-2.312-2.143 0-.883.225-2.186 2.83-2.383 1.947-.154 2.087-.307 2.087-1.078 0-.812-.546-1.191-1.723-1.191-1.415 0-1.611.869-1.681 1.43h-1.148zm4.553 1.373c-.196.154-.504.266-2.045.463-.616.084-1.597.252-1.597 1.189 0 .812.434 1.303 1.358 1.303 1.163 0 2.283-.742 2.283-1.736v-1.219zm9.689-3.628v1.037H230.7v6.373h-1.246v-6.373h-2.438v-1.037h6.122zm2.138 0h1.163v1.051c.406-.602.952-1.26 2.241-1.26 1.961 0 3.067 1.596 3.067 3.697 0 1.766-.7 4.133-3.222 4.133-.994 0-1.652-.477-2.003-1.078v3.795h-1.247v-10.338zm1.247 3.685c0 1.609.63 2.857 1.989 2.857.784 0 1.961-.533 1.961-2.508 0-1.219-.126-3.125-1.919-3.125-1.933.001-2.031 1.809-2.031 2.776zm7.643-1.43c0-1.779 1.219-2.465 3.054-2.465.589 0 2.746.168 2.746 2.072v4.23c0 .309.153.463.406.463.111 0 .266-.029.406-.057v.91c-.211.057-.393.141-.673.141-1.106 0-1.261-.574-1.316-1.135-.49.518-1.233 1.205-2.676 1.205-1.358 0-2.312-.855-2.312-2.143 0-.883.225-2.186 2.83-2.383 1.947-.154 2.087-.307 2.087-1.078 0-.812-.546-1.191-1.723-1.191-1.415 0-1.611.869-1.681 1.43h-1.148zm4.553 1.373c-.196.154-.504.266-2.045.463-.616.084-1.597.252-1.597 1.189 0 .812.434 1.303 1.358 1.303 1.163 0 2.283-.742 2.283-1.736v-1.219zm9.1-1.134c-.154-.994-.7-1.584-1.751-1.584-1.541 0-2.031 1.473-2.031 2.789 0 1.273.309 2.844 2.018 2.844.84 0 1.555-.617 1.765-1.752h1.204c-.126 1.178-.84 2.83-3.011 2.83-2.073 0-3.307-1.568-3.307-3.713 0-2.283 1.107-4.117 3.544-4.117 1.947 0 2.676 1.414 2.773 2.703h-1.204zm6.509-2.703c2.367 0 3.432 2.002 3.432 3.908 0 1.904-1.064 3.922-3.432 3.922s-3.433-2.018-3.433-3.922c.001-1.907 1.065-3.908 3.433-3.908zm0 6.751c1.778 0 2.157-1.85 2.157-2.844 0-.996-.379-2.83-2.157-2.83-1.779 0-2.157 1.834-2.157 2.83 0 .995.378 2.844 2.157 2.844zm5.892-6.542h3.362c1.639 0 2.423.869 2.423 1.893 0 .881-.602 1.414-1.246 1.596.784.182 1.681.688 1.681 1.961 0 1.178-.952 1.961-2.718 1.961h-3.502v-7.411zm1.247 3.068h1.807c1.079 0 1.485-.309 1.485-1.121 0-.588-.364-.91-1.457-.91h-1.835v2.031zm0 3.307h2.228c.966 0 1.498-.322 1.498-1.15 0-.797-.616-1.176-1.625-1.176h-2.101v2.326zM47.222 125.392c.217 1.949.596 4.982 2.924 5.74 1.571.486 2.979.486 3.521.486.271 0 .434.055.434.271 0 .324-.488.486-1.138.486-1.191 0-7.04-.162-9.044-.324-1.245-.107-1.516-.271-1.516-.541 0-.217.108-.326.379-.379.271-.055.325-.975.217-1.949l-2.6-27.943h-.162l-13.268 28.158c-1.138 2.383-1.3 2.871-1.787 2.871-.38 0-.65-.541-1.679-2.49-1.408-2.654-6.065-12.023-6.336-12.564-.488-.975-6.553-13.971-7.148-15.433h-.217l-2.166 25.126c-.055.867-.055 1.842-.055 2.762 0 .812.596 1.516 1.408 1.68a9.94 9.94 0 0 0 2.058.27c.217 0 .434.109.434.271 0 .379-.325.486-.975.486-2.004 0-4.604-.162-5.036-.162-.487 0-3.087.162-4.549.162-.542 0-.921-.107-.921-.486 0-.162.271-.271.541-.271.434 0 .812 0 1.625-.162 1.787-.324 1.949-2.438 2.166-4.494l3.899-35.308c.054-.596.271-.975.596-.975.324 0 .541.217.812.812l16.57 34.062L42.13 91.546c.217-.487.434-.866.812-.866s.542.433.65 1.462l3.63 33.25z"/><path d="M72.672 92.791c.65-1.787.866-2.112 1.191-2.112s.542.271 1.191 1.95c.812 2.058 9.314 24.423 12.618 32.653 1.949 4.82 3.52 5.688 4.657 6.012.812.271 1.624.324 2.166.324.324 0 .541.055.541.326 0 .324-.487.432-1.083.432-.812 0-4.766 0-8.502-.107-1.029-.055-1.625-.055-1.625-.379 0-.217.163-.324.38-.379.324-.109.649-.596.324-1.463l-5.036-13.321c-.108-.217-.217-.325-.487-.325H67.365c-.271 0-.434.162-.542.434l-3.249 9.586c-.487 1.354-.758 2.652-.758 3.627 0 1.084 1.137 1.57 2.058 1.57h.541c.38 0 .542.109.542.326 0 .324-.325.432-.812.432-1.3 0-3.628-.162-4.224-.162s-3.574.162-6.119.162c-.704 0-1.029-.107-1.029-.432 0-.217.217-.326.487-.326.379 0 1.138-.053 1.57-.107 2.491-.326 3.574-2.383 4.549-5.09l12.293-33.631zm5.632 21.661c.271 0 .271-.162.217-.379l-5.145-14.621c-.271-.812-.541-.812-.812 0l-4.766 14.621c-.108.271 0 .379.163.379h10.343zm32.221 2.221c0 5.198 0 9.477.271 11.75.163 1.57.487 2.762 2.112 2.979.758.109 1.949.217 2.437.217.325 0 .434.162.434.326 0 .27-.271.432-.866.432-2.979 0-6.391-.162-6.661-.162s-3.683.162-5.308.162c-.596 0-.866-.107-.866-.432 0-.164.108-.326.434-.326.487 0 1.137-.107 1.624-.217 1.084-.217 1.354-1.408 1.571-2.979.271-2.273.271-6.552.271-11.75V93.766l-8.015.108c-3.357.054-4.657.434-5.523 1.733-.596.921-.759 1.3-.921 1.679-.162.434-.325.542-.542.542-.162 0-.271-.163-.271-.488 0-.542 1.083-5.199 1.191-5.632.108-.325.325-1.029.542-1.029.379 0 .92.542 2.383.65 1.57.162 3.628.271 4.277.271h20.308c1.733 0 2.979-.108 3.845-.271.812-.108 1.3-.271 1.517-.271.271 0 .271.325.271.65 0 1.625-.162 5.361-.162 5.957 0 .487-.162.704-.379.704-.271 0-.379-.163-.434-.921l-.054-.596c-.163-1.625-1.462-2.87-6.661-2.979l-6.823-.108v22.908zm25.884-9.531c0-8.448 0-9.964-.108-11.697-.107-1.841-.541-2.708-2.328-3.087-.434-.108-1.354-.163-1.841-.163-.217 0-.434-.108-.434-.325 0-.325.271-.433.866-.433 1.246 0 2.708 0 3.899.054l2.22.108c.38 0 11.156 0 12.401-.054 1.029-.054 1.896-.162 2.329-.271.271-.054.487-.271.758-.271.162 0 .217.217.217.487 0 .379-.271 1.029-.434 2.545-.054.542-.162 2.924-.271 3.574-.055.271-.162.596-.379.596-.325 0-.434-.271-.434-.704 0-.379-.054-1.3-.325-1.95-.379-.866-.92-1.516-3.845-1.841-.92-.108-6.823-.163-7.419-.163-.217 0-.325.163-.325.542v14.945c0 .379.055.542.325.542.704 0 7.365 0 8.61-.108 1.3-.107 2.058-.217 2.546-.758.379-.434.596-.703.812-.703.163 0 .271.107.271.432 0 .326-.271 1.246-.434 3.033-.108 1.083-.217 3.087-.217 3.466 0 .433 0 1.028-.379 1.028-.271 0-.379-.217-.379-.486 0-.542 0-1.084-.217-1.787-.217-.759-.704-1.68-2.816-1.896-1.462-.162-6.823-.27-7.743-.27-.271 0-.38.162-.38.379v4.766c0 1.841-.054 8.123 0 9.26.163 3.736.976 4.441 6.282 4.441 1.408 0 3.791 0 5.199-.596 1.407-.596 2.058-1.68 2.437-3.9.108-.596.217-.812.487-.812.325 0 .325.434.325.812 0 .434-.434 4.115-.704 5.254-.379 1.408-.812 1.408-2.925 1.408-4.062 0-7.04-.109-9.151-.164-2.112-.107-3.412-.162-4.225-.162-.107 0-1.028 0-2.166.055-1.083 0-2.328.107-3.141.107-.596 0-.866-.107-.866-.432 0-.164.108-.326.433-.326.487 0 1.138-.107 1.625-.217 1.083-.217 1.354-1.408 1.57-2.979.271-2.273.271-6.552.271-11.75v-9.529zm33.033 0c0-8.448 0-9.964-.108-11.697-.108-1.841-.542-2.708-2.328-3.087-.434-.108-1.354-.163-1.842-.163-.217 0-.434-.108-.434-.325 0-.325.271-.433.867-.433 2.437 0 5.849.162 6.119.162.596 0 4.711-.162 6.39-.162 3.412 0 7.04.325 9.91 2.382 1.354.975 3.736 3.628 3.736 7.365 0 4.007-1.679 8.014-6.552 12.509 4.44 5.686 8.122 10.506 11.264 13.863 2.924 3.086 5.253 3.682 6.606 3.898 1.029.162 1.787.162 2.112.162.271 0 .487.162.487.326 0 .324-.325.432-1.3.432h-3.845c-3.033 0-4.387-.27-5.795-1.027-2.328-1.246-4.224-3.9-7.311-7.961-2.274-2.979-4.819-6.607-5.902-8.016-.217-.216-.379-.324-.704-.324l-6.661-.108c-.271 0-.379.163-.379.433v1.301c0 5.198 0 9.477.271 11.75.163 1.57.487 2.762 2.112 2.979.758.109 1.949.217 2.437.217.325 0 .434.162.434.326 0 .27-.271.432-.866.432-2.979 0-6.391-.162-6.661-.162-.054 0-3.466.162-5.09.162-.596 0-.867-.107-.867-.432 0-.164.108-.326.434-.326.487 0 1.137-.107 1.624-.217 1.084-.217 1.354-1.408 1.571-2.979.271-2.273.271-6.552.271-11.75v-9.53zm4.332 4.711c0 .271.108.487.379.65.812.486 3.304.866 5.687.866 1.3 0 2.815-.163 4.062-1.029 1.896-1.3 3.303-4.224 3.303-8.339 0-6.769-3.574-10.831-9.368-10.831-1.624 0-3.087.162-3.628.325-.271.108-.434.325-.434.65v17.708zm41.048 4.927c0 7.961.217 11.426 1.191 12.402.866.865 2.274 1.244 6.498 1.244 2.87 0 5.253-.053 6.553-1.625.704-.865 1.245-2.219 1.408-3.248.054-.434.162-.705.487-.705.271 0 .324.217.324.812s-.379 3.846-.812 5.416c-.379 1.246-.542 1.463-3.412 1.463-3.898 0-6.715-.109-8.989-.164-2.274-.107-3.953-.162-5.523-.162-.217 0-1.138.055-2.221.055-1.083.055-2.274.107-3.087.107-.596 0-.866-.107-.866-.432 0-.164.108-.326.434-.326.487 0 1.137-.107 1.624-.217 1.083-.217 1.354-1.408 1.57-2.979.271-2.273.271-6.552.271-11.75v-9.531c0-8.448 0-9.964-.108-11.697-.108-1.841-.542-2.708-2.329-3.087-.433-.108-1.354-.163-1.841-.163-.217 0-.434-.108-.434-.325 0-.325.271-.433.866-.433 2.438 0 5.849.162 6.12.162.271 0 4.224-.162 5.849-.162.596 0 .866.108.866.433 0 .216-.217.325-.434.325-.379 0-1.137.054-1.787.163-1.57.271-2.003 1.191-2.111 3.087-.108 1.733-.108 3.249-.108 11.697v9.64zm24.043-9.638c0-8.448 0-9.964-.108-11.697-.107-1.841-.541-2.708-2.328-3.087-.434-.108-1.354-.163-1.841-.163-.217 0-.434-.108-.434-.325 0-.325.271-.433.866-.433 2.438 0 5.74.162 6.228.162s3.737-.162 5.361-.162c.596 0 .866.108.866.433 0 .216-.216.325-.433.325-.379 0-.704.054-1.354.163-1.462.217-1.895 1.191-2.003 3.087-.108 1.733-.108 3.249-.108 11.697v7.581c0 7.798 1.732 11.155 4.062 13.376 2.653 2.49 5.09 2.979 8.177 2.979 3.304 0 6.553-1.57 8.502-3.898 2.491-3.088 3.142-7.69 3.142-13.268v-6.77c0-8.448 0-9.964-.108-11.697-.108-1.841-.542-2.708-2.329-3.087-.433-.108-1.354-.163-1.841-.163-.217 0-.434-.108-.434-.325 0-.325.271-.433.866-.433 2.438 0 5.416.162 5.74.162.38 0 2.925-.162 4.55-.162.596 0 .866.108.866.433 0 .216-.217.325-.434.325-.379 0-.704.054-1.354.163-1.462.325-1.896 1.191-2.004 3.087-.108 1.733-.108 3.249-.108 11.697v5.794c0 5.849-.649 12.347-4.982 16.192-3.898 3.465-7.96 4.008-11.155 4.008-1.841 0-7.311-.217-11.155-3.846-2.653-2.545-4.712-6.336-4.712-14.242v-7.906zm54.965 4.332l-8.664-14.567c-1.246-2.112-2.383-3.682-4.225-4.332-.866-.271-1.949-.379-2.274-.379-.324 0-.487-.162-.487-.379 0-.271.217-.379.921-.379 1.517 0 5.902.162 6.336.162.487 0 3.249-.162 5.091-.162.758 0 .92.108.92.379s-.162.379-.487.379-1.028 0-1.462.163c-.487.163-.649.542-.649.92 0 .542.216 1.191.541 1.787 2.274 4.278 4.495 8.286 7.311 12.943 1.625-2.329 7.419-11.589 7.961-12.727.379-.812.541-1.3.541-1.95 0-.379-.379-.812-.92-.975-.542-.163-1.3-.163-1.625-.163s-.487-.108-.487-.379c0-.217.271-.379.921-.379 2.058 0 4.332.162 4.819.162s2.708-.162 4.549-.162c.596 0 .866.162.866.379s-.216.379-.596.379c-.379 0-1.191.054-1.787.271-1.57.487-2.599 2.058-4.169 4.386l-8.719 13.105c1.028 1.678 10.289 17.438 11.426 18.898.866 1.137 1.625 1.949 3.195 2.438.758.217 1.57.324 1.896.324.271 0 .433.109.433.326 0 .27-.271.432-.758.432-3.304 0-5.902 0-8.664-.107-1.408-.055-1.68-.162-1.68-.434 0-.217.108-.379.325-.434.271-.107.759-.648.271-1.516-2.924-5.307-6.064-10.668-9.313-16.138l-8.448 14.351c-.487.867-.704 1.842-.704 2.383s.379.92.866 1.029c.325.055.759.107 1.029.107s.433.162.433.379c0 .271-.271.379-.649.379-1.3 0-4.711-.162-5.199-.162-.487 0-3.141.162-4.928.162-.433 0-.541-.162-.541-.379s.162-.379.433-.379c.434 0 1.246-.053 2.059-.27 1.624-.434 2.762-1.625 4.494-4.387l9.798-15.484z"/></g></svg>